<svg version="1.1" xmlns="http://www.w3.org/2000/svg" xmlns:xlink="http://www.w3.org/1999/xlink" width="36.53192" height="32.03568" viewBox="0,0,36.53192,32.03568"><g transform="translate(-214.86911,-164.2001)"><g data-paper-data="{&quot;isPaintingLayer&quot;:true}" fill-rule="nonzero" stroke="none" stroke-linecap="butt" stroke-linejoin="miter" stroke-miterlimit="10" stroke-dasharray="" stroke-dashoffset="0" style="mix-blend-mode: normal"><path d="M251.40103,180.21794c0,8.84642 -8.17795,16.01784 -18.26596,16.01784c-10.08802,0 -18.26596,-7.17143 -18.26596,-16.01784c0,-8.84642 8.17795,-16.01784 18.26596,-16.01784c10.08802,0 18.26596,7.17143 18.26596,16.01784z" fill="#000000" stroke-width="0"/><path d="M237.79637,176.2646c0,-1.38071 1.11929,-2.5 2.5,-2.5c1.38071,0 2.5,1.11929 2.5,2.5c0,1.38071 -1.11929,2.5 -2.5,2.5c-1.38071,0 -2.5,-1.11929 -2.5,-2.5z" fill="#ff0000" stroke-width="0.5"/><path d="M245.70304,176.8576c0,-1.38071 1.11929,-2.5 2.5,-2.5c1.38071,0 2.5,1.11929 2.5,2.5c0,1.38071 -1.11929,2.5 -2.5,2.5c-1.38071,0 -2.5,-1.11929 -2.5,-2.5z" fill="#ff0000" stroke-width="0.5"/><path d="M232.76679,189.18815c2.41659,0.35227 5.6961,0.65553 7.88929,-0.70888c0.9298,-0.57844 2.79956,-3.09451 3.99295,-3.00778c3.51613,0.25554 -2.00678,4.72085 -2.67095,5.13108c-4.41615,2.72763 -10.84151,1.53233 -14.80721,-1.34912c-0.65761,-0.47782 -2.89447,-1.70046 -2.9464,-2.63512c-0.12701,-0.19566 -0.20078,-0.42907 -0.20078,-0.67972c0,-0.69036 0.55964,-1.25 1.25,-1.25c0.49298,0 0.9193,0.28538 1.12278,0.69995c1.89671,0.7306 4.0019,3.45435 6.37032,3.79959z" fill="#ffffff" stroke-width="0.5"/></g></g></svg>