<svg version="1.1" xmlns="http://www.w3.org/2000/svg" xmlns:xlink="http://www.w3.org/1999/xlink" width="36.53192" height="32.03568" viewBox="0,0,36.53192,32.03568"><g transform="translate(-214.86911,-164.2001)"><g data-paper-data="{&quot;isPaintingLayer&quot;:true}" fill-rule="nonzero" stroke="none" stroke-linecap="butt" stroke-linejoin="miter" stroke-miterlimit="10" stroke-dasharray="" stroke-dashoffset="0" style="mix-blend-mode: normal"><path d="M251.40103,180.21794c0,8.84642 -8.17795,16.01784 -18.26596,16.01784c-10.08802,0 -18.26596,-7.17143 -18.26596,-16.01784c0,-8.84642 8.17795,-16.01784 18.26596,-16.01784c10.08802,0 18.26596,7.17143 18.26596,16.01784z" fill="#000000" stroke-width="0"/><path d="M225.59201,173.75835c0,-1.38071 1.11929,-2.5 2.5,-2.5c1.38071,0 2.5,1.11929 2.5,2.5c0,1.38071 -1.11929,2.5 -2.5,2.5c-1.38071,0 -2.5,-1.11929 -2.5,-2.5z" fill="#ff0000" stroke-width="0.5"/><path d="M236.4408,173.69754c0,-1.38071 1.11929,-2.5 2.5,-2.5c1.38071,0 2.5,1.11929 2.5,2.5c0,1.38071 -1.11929,2.5 -2.5,2.5c-1.38071,0 -2.5,-1.11929 -2.5,-2.5z" fill="#ff0000" stroke-width="0.5"/></g></g></svg>