<svg version="1.1" xmlns="http://www.w3.org/2000/svg" xmlns:xlink="http://www.w3.org/1999/xlink" width="193.29931" height="355.21499" viewBox="0,0,193.29931,355.21499"><g transform="translate(-143.20783,-4.15583)"><g data-paper-data="{&quot;isPaintingLayer&quot;:true}" fill-rule="nonzero" stroke-linejoin="miter" stroke-miterlimit="10" stroke-dasharray="" stroke-dashoffset="0" style="mix-blend-mode: normal"><path d="M311,106.75002l19,2.5l4,5l-0.75,92.25l-27.75,6.75l-3.75,6.5l-1.5,95.5l-76.5,41.25l-34.25,-20.25l-2,-98.5l-0.25,-6.75l-41.25,-49.5l18.5,-59.25l18.75,-0.5l3.5,-0.25l-0.5,-16.25v-4h63l22,3.5l22.5,-4.25z" fill="none" stroke="#000000" stroke-width="5" stroke-linecap="round"/><path d="M311.75,108.25002l1.25,2.5l9.5,18l0.5,10l-6,13.75l-23.5,16l-15.5,19l-2,2.5l-18.25,-10l9,-26.25" fill="none" stroke="#000000" stroke-width="5" stroke-linecap="round"/><path d="M225.125,271.25001l2,-4.5l30.5,-59l45,-5.5l-21,53.5l-55.5,17.5l-28.5,-36.5l33,-61.5l26,-2.5" fill="none" stroke="#000000" stroke-width="5" stroke-linecap="round"/><path d="M231.625,176.75001l24.5,31.5" fill="none" stroke="#000000" stroke-width="5" stroke-linecap="round"/><path d="M304.625,200.75001l-17.5,-22.5" fill="none" stroke="#000000" stroke-width="5" stroke-linecap="round"/><path d="M197.125,237.25001l-7,-4" fill="none" stroke="#000000" stroke-width="5" stroke-linecap="round"/><path d="M267.125,329.50002l-2.5,-65" fill="none" stroke="#000000" stroke-width="5" stroke-linecap="round"/><path d="M186.125,121.00001l37,4l40,33.5" fill="none" stroke="#000000" stroke-width="5" stroke-linecap="round"/><path d="M223.625,124.00002l1.5,-21.5" fill="none" stroke="#000000" stroke-width="5" stroke-linecap="round"/><path d="M270.95833,153.16668l1.16667,-3.66667l4,-12.5l7.33333,-13.33333l7.66667,-9.5l9.5,-8.66666" fill="none" stroke="#000000" stroke-width="2" stroke-linecap="round"/><path d="M315.125,121.16667l-6,-0.16666l-8.83333,-3l-9.33333,-4.5l-5.66667,-3l-3.5,-5.66666" fill="none" stroke="#000000" stroke-width="2" stroke-linecap="round"/><path d="M302.45833,105.66668l-1.83333,11.5l-4.16667,12.16667l-6.66667,15l-4.66667,11.33333l-1.5,2.66667" fill="none" stroke="#000000" stroke-width="2" stroke-linecap="round"/><path d="M260.79167,136l1.66667,-2.66666l2.33333,-4l8.5,-12.83333l6.33333,-5.5l7.5,-3.66666l10.16667,-4" fill="none" stroke="#000000" stroke-width="2" stroke-linecap="round"/><path d="M305.79167,106.33335l3.33333,14l-0.5,13.33333l-4.16667,14.66667l-6.66667,11.33333l-3.66667,5" fill="none" stroke="#000000" stroke-width="2" stroke-linecap="round"/><path d="M267.62498,152.16667l-8.5,-13.83333l2.33334,-18.33333l11,-13.16666" fill="none" stroke="#000000" stroke-width="5" stroke-linecap="round"/><path d="M295.79167,167.16667l-27.16667,-13.66667" fill="none" stroke="#000000" stroke-width="5" stroke-linecap="round"/><path d="M320.95833,133.5l-12.66667,-1l-12.66667,-3.5l-12.33333,-5.66666l-9.66667,-7l-3.66667,-4.33334" fill="none" stroke="#000000" stroke-width="2" stroke-linecap="round"/><path d="M315.29167,149.66668l-9.83333,-1l-14.33333,-4.33333l-15.16667,-7l-10.5,-8.16667l-2.83333,-2.5" fill="none" stroke="#000000" stroke-width="2" stroke-linecap="round"/><path d="M265.29166,146.16668l2.5,0.5l32.66667,15.5" fill="none" stroke="#000000" stroke-width="2" stroke-linecap="round"/><path d="M301.375,195.66668l0.66667,-6l1.66667,-24.33333l0.66667,-2.66667" fill="none" stroke="#000000" stroke-width="5" stroke-linecap="round"/><path d="M269.29167,52.75002c0,2.34721 -0.7835,4.25 -1.75,4.25c-0.9665,0 -1.75,-1.90279 -1.75,-4.25c0,-2.34721 0.7835,-4.25 1.75,-4.25c0.9665,0 1.75,1.90279 1.75,4.25z" fill="#000000" stroke="#000000" stroke-width="5" stroke-linecap="butt"/><path d="M275.45833,54.91668c0,-2.43926 0.41041,-4.41667 0.91667,-4.41667c0.50626,0 0.91667,1.97741 0.91667,4.41667c0,2.43926 -0.41041,4.41667 -0.91667,4.41667c-0.50626,0 -0.91667,-1.97741 -0.91667,-4.41667z" fill="none" stroke="#000000" stroke-width="5" stroke-linecap="butt"/><path d="M279.45833,80.66666c0,0.73638 -1.38265,11.33334 -6.58333,11.33334c-5.20068,0 -12.25,-14.26362 -12.25,-15c0,-0.73638 7.04932,12.33334 12.25,12.33334c5.20068,0 6.58333,-9.40305 6.58333,-8.66667z" fill="#000000" stroke="#000000" stroke-width="5" stroke-linecap="butt"/><path d="M333.04166,179.66669l-29.33333,1.33333" fill="none" stroke="#000000" stroke-width="5" stroke-linecap="round"/><path d="M219.69661,65.63191c-0.14992,0.05084 -0.29346,0.11553 -0.42908,0.19252c-0.08649,0.02112 -0.17298,0.04212 -0.25954,0.06316c0.00391,-0.04076 0.00779,-0.08137 0.01162,-0.12181c0.15666,-0.17677 0.31402,-0.36445 0.47135,-0.55684c0.05541,0.14816 0.12447,0.28966 0.20565,0.42296z" fill="#ffec00" stroke="none" stroke-width="0.5" stroke-linecap="butt"/><path d="" fill="#ffec00" stroke="none" stroke-width="0.5" stroke-linecap="butt"/><path d="M224.94238,67.23809c-0.11704,0.02584 -0.2115,0.0534 -0.2758,0.07414c-0.00012,-0.01478 -0.00037,-0.02953 -0.00075,-0.04424c0.04117,-0.05845 0.07994,-0.12097 0.11484,-0.18755c0.05592,0.05001 0.10988,0.10256 0.16171,0.15766z" fill="#ffec00" stroke="none" stroke-width="0.5" stroke-linecap="butt"/><path d="M211.53571,87.9762l-1.57143,-28.28571l6,0.42857l6.57143,11.28571l5.14286,-0.14286l0.57143,-13.42857l17,-16.57143l6,0.14286l21.3125,0.42857l4.875,2.75l6.75,7.375l0.125,48.5" fill="none" stroke="#000000" stroke-width="5" stroke-linecap="round"/><path d="M213.10715,98.11905l-6.42857,-13.14286l-4.85714,-17.42857l-0.28571,-17.71428l2.42857,-12.71428l17.57143,-15.42858l24.42857,-8.57142l15.14286,-5.14286l13.71429,-1.28571l16.14285,4.85715l4,2.28571l0.14286,14l7.28571,10l-15.28571,14" fill="none" stroke="#000000" stroke-width="5" stroke-linecap="round"/></g></g></svg>